<svg xmlns="http://www.w3.org/2000/svg" xmlns:xlink="http://www.w3.org/1999/xlink" width="500" zoomAndPan="magnify" viewBox="0 0 375 374.999991" height="500" preserveAspectRatio="xMidYMid meet" version="1.0"><defs><g/><clipPath id="efa469a37e"><path d="M 37.5 37.5 L 337.5 37.5 L 337.5 337.5 L 37.5 337.5 Z M 37.5 37.5 " clip-rule="nonzero"/></clipPath><clipPath id="2f8be433f7"><path d="M 105.46875 105.46875 L 269.53125 105.46875 L 269.53125 269.53125 L 105.46875 269.53125 Z M 105.46875 105.46875 " clip-rule="nonzero"/></clipPath><clipPath id="3fca7e7813"><path d="M 187.5 105.46875 C 142.195312 105.46875 105.46875 142.195312 105.46875 187.5 C 105.46875 232.804688 142.195312 269.53125 187.5 269.53125 C 232.804688 269.53125 269.53125 232.804688 269.53125 187.5 C 269.53125 142.195312 232.804688 105.46875 187.5 105.46875 Z M 187.5 105.46875 " clip-rule="nonzero"/></clipPath><clipPath id="46576ecc54"><path d="M 127 164 L 247.742188 164 L 247.742188 265.242188 L 127 265.242188 Z M 127 164 " clip-rule="nonzero"/></clipPath><clipPath id="f71c6342ee"><path d="M 178.660156 52.761719 L 200.410156 52.761719 L 200.410156 87.242188 L 178.660156 87.242188 Z M 178.660156 52.761719 " clip-rule="nonzero"/></clipPath><clipPath id="0a13460aaa"><path d="M 150.050781 107.671875 L 225 107.671875 L 225 220.921875 L 150.050781 220.921875 Z M 150.050781 107.671875 " clip-rule="nonzero"/></clipPath><clipPath id="ddf786f86e"><path d="M 195 158.214844 L 207.675781 158.214844 L 207.675781 171 L 195 171 Z M 195 158.214844 " clip-rule="nonzero"/></clipPath><clipPath id="578cf0ec31"><path d="M 195 158.214844 L 207.675781 158.214844 L 207.675781 200.964844 L 195 200.964844 Z M 195 158.214844 " clip-rule="nonzero"/></clipPath><clipPath id="beee5ba637"><path d="M 167.175781 158.214844 L 195 158.214844 L 195 200.964844 L 167.175781 200.964844 Z M 167.175781 158.214844 " clip-rule="nonzero"/></clipPath></defs><path fill="#000000" d="M 172.472656 189.960938 C 171.394531 191.160156 172.832031 192.957031 173.734375 193.378906 C 172.171875 194.097656 170.195312 191.097656 172.472656 189.960938 Z M 205.167969 173.042969 C 204.867188 171.964844 204.085938 171.363281 203.246094 171.601562 C 203.667969 171.125 204.207031 171.003906 204.625 171.304688 C 205.046875 171.601562 205.226562 172.261719 205.167969 173.042969 Z M 188.128906 187.800781 C 189.328125 187.199219 190.828125 187.621094 191.488281 188.820312 C 191.667969 189.238281 191.789062 189.660156 191.730469 190.078125 C 191.070312 189.417969 189.929688 189.058594 188.789062 189.179688 C 188.011719 189.300781 187.351562 189.660156 186.808594 190.078125 C 186.75 189.179688 187.230469 188.21875 188.128906 187.800781 Z M 175.890625 164.882812 C 175.832031 164.523438 175.652344 163.925781 174.09375 165.484375 C 175.414062 163.566406 176.613281 164.042969 175.890625 164.882812 Z M 175.652344 167.523438 C 175.710938 166.804688 175.351562 166.203125 173.851562 168.125 C 174.933594 165.785156 176.492188 166.265625 175.652344 167.523438 Z M 172.234375 169.324219 C 172.234375 168.664062 171.875 167.882812 170.3125 169.503906 C 171.574219 167.222656 172.894531 168.0625 172.234375 169.324219 Z M 166.953125 178.140625 C 166.835938 177.84375 166.472656 177.542969 165.933594 178.320312 C 166.175781 177.121094 167.253906 177.300781 166.953125 178.140625 Z M 168.332031 173.941406 C 168.152344 173.402344 167.554688 173.042969 166.773438 175.082031 C 167.132812 172.683594 168.574219 172.683594 168.332031 173.941406 Z M 171.511719 172.382812 C 171.214844 171.722656 170.492188 171.0625 169.472656 173.34375 C 169.894531 170.523438 171.753906 170.882812 171.511719 172.382812 Z M 178.171875 169.382812 C 177.871094 168.605469 177.03125 167.882812 175.953125 170.464844 C 176.433594 167.285156 178.410156 167.703125 178.171875 169.382812 Z M 175.050781 171.363281 C 174.691406 170.644531 173.914062 169.921875 172.773438 172.441406 C 173.253906 169.324219 175.351562 169.625 175.050781 171.363281 Z M 179.550781 172.5625 C 178.953125 171.664062 177.453125 171.542969 177.273438 173.882812 C 176.191406 171.0625 179.492188 170.042969 179.550781 172.5625 Z M 175.710938 174.363281 C 175.113281 173.761719 173.792969 173.34375 173.074219 175.863281 C 172.773438 172.742188 175.53125 172.441406 175.710938 174.363281 Z M 171.632812 176.761719 C 171.035156 176.164062 169.832031 175.621094 169.113281 178.082031 C 168.753906 174.722656 171.632812 174.183594 171.632812 176.761719 Z M 172.53125 183.0625 C 172.351562 181.382812 170.671875 180.421875 169.652344 182.101562 C 170.375 178.5625 173.972656 181.019531 172.53125 183.0625 Z M 176.972656 179.339844 C 176.371094 177.660156 174.574219 177.660156 173.792969 179.339844 C 174.152344 175.621094 177.570312 176.460938 176.972656 179.339844 Z M 180.871094 178.082031 C 180.691406 176.882812 179.070312 175.980469 178.113281 176.703125 C 179.25 174.484375 181.949219 176.460938 180.871094 178.082031 Z M 184.769531 175.140625 C 184.171875 174.003906 182.25 173.761719 181.53125 174.78125 C 181.832031 172.261719 185.25 173.164062 184.769531 175.140625 Z M 191.789062 176.222656 C 191.128906 175.082031 189.089844 175.082031 188.429688 176.164062 C 188.25 173.101562 192.628906 173.941406 191.789062 176.222656 Z M 188.128906 179.042969 C 187.410156 177.902344 185.070312 177.902344 184.46875 179.160156 C 183.449219 175.683594 189.210938 176.222656 188.128906 179.042969 Z M 183.089844 183.300781 C 182.609375 180.660156 180.332031 180.722656 179.613281 182.160156 C 178.589844 178.621094 185.25 179.222656 183.089844 183.300781 Z M 178.171875 185.761719 C 177.691406 183.121094 175.171875 183.660156 174.753906 185.28125 C 173.554688 180.902344 180.152344 180.902344 178.171875 185.761719 Z M 183.03125 189.539062 C 182.492188 187.679688 180.152344 187.078125 179.730469 188.757812 C 178.652344 185.160156 185.011719 185.28125 183.03125 189.539062 Z M 188.011719 185.878906 C 187.109375 184.140625 184.050781 184.082031 183.75 185.941406 C 182.429688 182.28125 188.011719 182.101562 188.011719 185.878906 Z M 192.210938 182.222656 C 191.429688 181.320312 188.667969 181.140625 188.25 183.359375 C 186.929688 179.640625 191.609375 179.582031 192.210938 182.222656 Z M 195.75 179.460938 C 195.628906 179.222656 192.6875 177.902344 192.210938 180.0625 C 191.371094 176.523438 195.089844 177.003906 195.75 179.460938 Z M 198.988281 164.824219 C 198.925781 164.585938 198.027344 163.863281 197.488281 164.34375 C 197.609375 163.625 198.925781 163.925781 198.988281 164.824219 Z M 201.507812 167.285156 C 201.445312 167.042969 200.425781 165.84375 199.949219 166.445312 C 199.949219 165.304688 201.445312 166.382812 201.507812 167.285156 Z M 204.625 169.804688 C 204.625 169.5625 203.90625 168.484375 203.367188 169.023438 C 203.367188 167.824219 204.6875 168.84375 204.625 169.804688 Z M 201.328125 170.703125 C 201.386719 169.984375 200.308594 168.605469 199.289062 169.082031 C 200.605469 167.703125 202.226562 169.742188 201.328125 170.703125 Z M 200.308594 173.882812 C 200.488281 172.863281 199.347656 171.363281 198.148438 172.082031 C 199.648438 170.285156 201.328125 172.5625 200.308594 173.882812 Z M 198.925781 175.800781 C 198.207031 174.84375 196.226562 175.261719 195.867188 176.523438 C 195.269531 173.824219 198.566406 173.882812 198.925781 175.800781 Z M 202.527344 178.621094 C 201.925781 177.960938 200.246094 178.023438 199.585938 178.800781 C 199.585938 176.640625 202.46875 177.0625 202.527344 178.621094 Z M 204.445312 176.222656 C 204.027344 174.78125 202.46875 174.183594 201.925781 175.621094 C 201.988281 173.222656 205.046875 174.121094 204.445312 176.222656 Z M 207.386719 177.121094 C 207.085938 175.863281 206.726562 174.960938 206.125 175.863281 C 206.066406 173.644531 207.804688 175.921875 207.386719 177.121094 Z M 206.367188 181.320312 C 205.886719 179.941406 205.046875 179.640625 204.566406 180.601562 C 204.027344 177.84375 206.726562 179.28125 206.367188 181.320312 Z M 199.347656 188.039062 C 198.027344 187.441406 196.167969 187.980469 195.570312 189.179688 C 194.789062 186.539062 198.925781 185.339844 199.347656 188.039062 Z M 204.507812 184.261719 C 203.066406 183.359375 201.746094 184.082031 201.6875 185.582031 C 200.246094 182.941406 203.367188 181.5 204.507812 184.261719 Z M 199.648438 181.800781 C 198.328125 181.5 196.886719 182.519531 196.46875 183.78125 C 194.730469 181.203125 198.207031 179.101562 199.648438 181.800781 Z M 195.089844 186.539062 C 194.128906 185.640625 192.449219 185.820312 191.550781 186.660156 C 191.308594 183.722656 195.148438 183.601562 195.089844 186.539062 Z M 168.875 192.238281 C 168.152344 190.558594 169.472656 189.300781 170.734375 193.738281 C 169.652344 191.699219 168.992188 191.21875 168.875 192.238281 Z M 191.789062 196.796875 C 191.730469 198.898438 186.988281 200.097656 187.050781 196.078125 C 188.488281 198.296875 190.949219 197.699219 191.789062 196.796875 Z M 182.070312 196.679688 C 181.410156 198.476562 177.03125 197.699219 177.871094 194.578125 C 177.992188 196.136719 180.511719 197.15625 182.070312 196.679688 Z M 173.671875 197.097656 C 172.652344 195.058594 175.234375 194.398438 176.433594 198.835938 C 175.351562 196.796875 173.792969 195.71875 173.671875 197.097656 Z M 182.609375 200.578125 C 181.410156 198.359375 187.53125 198.476562 186.148438 201.296875 C 186.089844 199.496094 183.03125 199.019531 182.609375 200.578125 Z M 178.050781 200.757812 C 177.632812 199.738281 180.332031 200.039062 179.613281 201.238281 C 179.613281 200.457031 178.351562 200.097656 178.050781 200.757812 Z M 196.289062 192.238281 C 196.828125 194.039062 192.867188 196.257812 191.789062 192.71875 C 193.527344 194.277344 195.808594 193.019531 196.289062 192.238281 Z M 186.691406 193.019531 C 185.96875 195 182.429688 195.238281 182.671875 191.699219 C 183.152344 193.558594 185.371094 193.859375 186.691406 193.019531 Z M 178.589844 191.21875 C 177.871094 193.199219 174.753906 191.699219 175.472656 189 C 175.773438 191.160156 177.632812 191.9375 178.589844 191.21875 Z M 198.328125 191.160156 C 197.488281 191.398438 196.589844 191.21875 195.988281 190.558594 C 194.847656 189.480469 193.527344 189.597656 192.210938 190.980469 C 190.53125 193.078125 188.96875 193.4375 187.46875 192.058594 C 186.03125 189.539062 184.410156 189.058594 182.609375 190.679688 C 181.292969 191.519531 180.269531 191.277344 179.671875 189.960938 C 178.652344 187.738281 177.390625 187.078125 175.773438 187.980469 C 174.8125 188.339844 174.273438 187.621094 174.152344 186 C 173.613281 184.261719 172.53125 183.902344 170.914062 184.859375 C 169.773438 184.679688 169.234375 183.722656 169.355469 181.980469 C 168.753906 179.523438 167.613281 178.921875 165.996094 180.179688 C 165.453125 180 165.394531 179.160156 165.753906 177.601562 C 164.613281 178.921875 164.433594 182.101562 165.214844 187.199219 C 168.09375 199.378906 180.332031 206.9375 192.570312 204.117188 C 204.746094 201.355469 212.484375 189.238281 209.785156 177.003906 C 208.046875 170.042969 203.125 164.34375 196.46875 161.585938 C 202.167969 164.285156 206.425781 169.261719 208.164062 175.324219 C 208.046875 175.980469 208.164062 176.523438 208.585938 177.003906 C 208.765625 177.480469 208.707031 177.84375 208.464844 178.082031 C 207.265625 178.5 206.847656 179.523438 207.324219 181.140625 C 207.625 181.621094 207.507812 182.042969 206.90625 182.402344 C 205.765625 182.882812 205.226562 183.839844 205.347656 185.101562 C 205.40625 186.71875 204.6875 187.320312 203.246094 187.019531 C 202.527344 186.898438 201.746094 187.082031 201.148438 187.5 C 200.546875 187.917969 200.128906 188.578125 200.007812 189.300781 C 199.765625 190.257812 199.167969 190.917969 198.328125 191.160156 Z M 170.492188 189 C 170.011719 190.800781 167.015625 188.398438 168.332031 185.582031 C 168.214844 188.160156 169.773438 189.417969 170.492188 189 Z M 188.550781 203.097656 C 188.191406 201.71875 191.1875 201.539062 190.949219 203.035156 C 190.53125 202.316406 188.851562 202.4375 188.550781 203.097656 Z M 173.433594 187.679688 C 172.773438 189.179688 170.3125 187.738281 171.332031 185.699219 C 171.691406 187.378906 172.53125 187.917969 173.433594 187.679688 Z M 208.285156 181.742188 C 209.066406 180.839844 208.585938 179.222656 208.285156 179.042969 C 209.125 178.5625 209.605469 181.441406 208.285156 181.742188 Z M 203.90625 188.339844 C 205.105469 189.359375 203.066406 192.777344 200.667969 190.980469 C 202.945312 191.039062 203.90625 188.941406 203.90625 188.339844 Z M 206.546875 187.261719 C 208.226562 185.878906 207.566406 183.839844 206.90625 183.539062 C 208.046875 182.882812 209.1875 186.300781 206.546875 187.261719 Z M 200.605469 193.558594 C 201.746094 194.578125 199.648438 198.058594 197.308594 196.019531 C 199.585938 196.136719 200.605469 194.160156 200.605469 193.558594 Z M 203.246094 195.957031 C 202.347656 195.898438 203.488281 193.980469 204.386719 194.757812 C 203.726562 194.699219 202.945312 195.476562 203.246094 195.957031 Z M 204.027344 192.480469 C 205.707031 193.078125 206.785156 190.5 205.945312 190.199219 C 208.046875 189.539062 205.707031 194.757812 204.027344 192.480469 Z M 199.527344 199.796875 C 198.628906 199.316406 200.488281 197.457031 201.085938 198.359375 C 200.425781 198.296875 199.347656 199.257812 199.527344 199.796875 Z M 193.050781 200.878906 C 191.371094 198.539062 197.128906 197.339844 196.769531 200.097656 C 196.167969 198.65625 192.988281 199.316406 193.050781 200.878906 Z M 168.695312 183.179688 C 168.273438 184.621094 166.472656 183.242188 167.195312 180.960938 C 167.375 183.300781 168.515625 183.480469 168.695312 183.179688 Z M 166.714844 185.339844 C 166.472656 186.179688 165.453125 185.339844 165.8125 184.082031 C 165.996094 185.402344 166.59375 185.519531 166.714844 185.339844 Z M 166.714844 185.339844 " fill-opacity="1" fill-rule="evenodd"/><path fill="#000000" d="M 189.089844 168.0625 L 189.089844 125.773438 L 202.585938 122.113281 L 189.089844 117.972656 L 187.710938 117.972656 L 187.710938 168.0625 C 186.089844 168.183594 184.890625 168.785156 184.890625 169.503906 C 184.890625 170.34375 186.449219 171.0625 188.429688 171.0625 C 190.347656 171.0625 191.910156 170.34375 191.910156 169.503906 C 191.910156 168.785156 190.648438 168.183594 189.089844 168.0625 Z M 189.089844 168.0625 " fill-opacity="1" fill-rule="evenodd"/><path fill="#000000" d="M 223.523438 231.710938 C 227.121094 225.832031 230.0625 221.453125 234.320312 216.054688 C 239.179688 209.636719 242 206.214844 247.757812 214.375 C 250.515625 218.273438 252.316406 223.371094 249.019531 227.09375 C 244.097656 231.710938 239.121094 235.308594 233.601562 238.429688 C 224.722656 243.46875 221.183594 240.710938 214.40625 237.289062 L 201.207031 229.613281 C 200.488281 229.25 200.367188 228.832031 200.789062 228.230469 L 132.460938 187.378906 L 103.726562 172.382812 C 102.40625 170.402344 104.085938 167.042969 106.425781 167.105469 L 134.082031 184.441406 L 202.585938 225.292969 C 202.886719 224.753906 203.1875 224.632812 203.667969 224.933594 L 215.785156 232.132812 C 217.582031 232.972656 221.183594 235.191406 223.523438 231.710938 Z M 216.023438 233.089844 C 209.84375 230.152344 205.105469 227.8125 201.628906 229.070312 C 201.265625 228.953125 201.265625 228.652344 201.265625 228.53125 C 201.867188 227.632812 202.347656 226.792969 203.007812 225.832031 C 203.367188 225.351562 203.605469 225.472656 204.085938 225.773438 C 206.1875 227.03125 213.925781 231.710938 216.023438 233.089844 Z M 248.058594 221.152344 C 241.339844 207.175781 228.863281 228.890625 225.863281 233.269531 C 224.601562 235.070312 221.003906 236.449219 218.964844 234.769531 C 220.523438 235.671875 224.121094 234.351562 225.082031 232.789062 C 228.921875 226.550781 233.0625 221.332031 237.5 215.574219 C 240.558594 211.554688 242.179688 210.355469 245.417969 214.855469 C 246.558594 216.414062 247.9375 218.875 248.058594 221.152344 Z M 248.058594 221.152344 " fill-opacity="1" fill-rule="evenodd"/><path fill="#000000" d="M 151.417969 231.710938 C 147.816406 225.832031 144.9375 221.453125 140.621094 216.054688 C 135.761719 209.636719 132.941406 206.214844 127.183594 214.375 C 124.421875 218.273438 122.683594 223.371094 125.921875 227.09375 C 130.839844 231.710938 135.820312 235.308594 141.339844 238.429688 C 150.21875 243.46875 153.757812 240.710938 160.535156 237.289062 L 173.734375 229.613281 C 174.511719 229.25 174.574219 228.832031 174.152344 228.230469 L 242.480469 187.378906 L 271.214844 172.382812 C 272.53125 170.402344 270.851562 167.042969 268.515625 167.105469 L 240.859375 184.441406 L 172.351562 225.292969 C 172.054688 224.753906 171.753906 224.632812 171.273438 224.933594 L 159.15625 232.132812 C 157.355469 232.972656 153.757812 235.191406 151.417969 231.710938 Z M 158.914062 233.089844 C 165.09375 230.152344 169.832031 227.8125 173.371094 229.070312 C 173.734375 228.953125 173.734375 228.652344 173.671875 228.53125 C 173.074219 227.632812 172.59375 226.792969 171.933594 225.832031 C 171.574219 225.351562 171.394531 225.472656 170.851562 225.773438 C 168.753906 227.03125 161.015625 231.710938 158.914062 233.089844 Z M 126.882812 221.152344 C 133.601562 207.175781 146.078125 228.890625 149.078125 233.269531 C 150.335938 235.070312 153.9375 236.449219 155.976562 234.769531 C 154.417969 235.671875 150.816406 234.351562 149.859375 232.789062 C 146.019531 226.550781 141.878906 221.332031 137.441406 215.574219 C 134.378906 211.554688 132.761719 210.355469 129.523438 214.855469 C 128.382812 216.414062 127.003906 218.875 126.882812 221.152344 Z M 126.882812 221.152344 " fill-opacity="1" fill-rule="evenodd"/><path fill="#000000" d="M 187.46875 273.644531 C 175.890625 273.644531 164.613281 271.363281 153.996094 266.863281 C 143.738281 262.484375 134.5625 256.304688 126.640625 248.386719 C 118.722656 240.46875 112.484375 231.230469 108.164062 220.972656 C 103.667969 210.355469 101.386719 199.078125 101.386719 187.5 C 101.386719 175.921875 103.667969 164.644531 108.164062 154.027344 C 112.484375 143.769531 118.722656 134.589844 126.640625 126.671875 C 134.5625 118.753906 143.796875 112.515625 153.996094 108.195312 C 164.613281 103.695312 175.890625 101.417969 187.46875 101.417969 C 199.046875 101.417969 210.324219 103.695312 220.941406 108.195312 C 231.203125 112.515625 240.378906 118.753906 248.359375 126.671875 C 256.277344 134.589844 262.515625 143.828125 266.835938 154.027344 C 271.332031 164.644531 273.613281 175.921875 273.613281 187.5 C 273.613281 199.078125 271.332031 210.355469 266.835938 220.972656 C 262.515625 231.230469 256.277344 240.410156 248.359375 248.386719 C 240.4375 256.304688 231.203125 262.546875 220.941406 266.863281 C 210.324219 271.363281 199.046875 273.644531 187.46875 273.644531 Z M 187.46875 105.375 C 142.179688 105.375 105.347656 142.210938 105.347656 187.5 C 105.347656 232.789062 142.179688 269.625 187.46875 269.625 C 232.761719 269.625 269.59375 232.789062 269.59375 187.5 C 269.59375 142.210938 232.761719 105.375 187.46875 105.375 Z M 187.46875 105.375 " fill-opacity="1" fill-rule="nonzero"/><path fill="#000000" d="M 187.46875 328.292969 C 168.453125 328.292969 150.039062 324.574219 132.699219 317.253906 C 115.964844 310.175781 100.90625 300.039062 87.949219 287.078125 C 75.050781 274.121094 64.855469 259.066406 57.777344 242.328125 C 50.457031 224.992188 46.738281 206.515625 46.738281 187.558594 C 46.738281 168.542969 50.457031 150.128906 57.777344 132.789062 C 64.855469 116.054688 74.992188 100.996094 87.949219 88.039062 C 100.847656 75.140625 115.90625 64.945312 132.699219 57.867188 C 150.039062 50.546875 168.515625 46.828125 187.46875 46.828125 C 206.484375 46.828125 224.902344 50.546875 242.238281 57.867188 C 258.976562 64.945312 274.03125 75.082031 286.988281 88.039062 C 299.949219 100.9375 310.085938 115.996094 317.164062 132.789062 C 324.484375 150.128906 328.203125 168.605469 328.203125 187.558594 C 328.203125 206.578125 324.484375 224.992188 317.164062 242.328125 C 310.085938 259.066406 299.949219 274.121094 286.988281 287.078125 C 274.03125 300.039062 258.976562 310.175781 242.238281 317.253906 C 224.902344 324.511719 206.425781 328.292969 187.46875 328.292969 Z M 187.46875 50.726562 C 112.066406 50.726562 50.699219 112.09375 50.699219 187.5 C 50.699219 262.90625 112.066406 324.273438 187.46875 324.273438 C 262.875 324.273438 324.242188 262.90625 324.242188 187.5 C 324.242188 112.09375 262.875 50.726562 187.46875 50.726562 Z M 187.46875 50.726562 " fill-opacity="1" fill-rule="nonzero"/><path fill="#000000" d="M 187.46875 282.640625 C 174.691406 282.640625 162.214844 280.121094 150.515625 275.140625 C 139.179688 270.34375 129.042969 263.445312 120.285156 254.746094 C 111.523438 245.988281 104.6875 235.789062 99.886719 224.511719 C 94.910156 212.753906 92.390625 200.335938 92.390625 187.558594 C 92.390625 174.78125 94.910156 162.304688 99.886719 150.605469 C 104.6875 139.269531 111.585938 129.132812 120.285156 120.375 C 128.980469 111.613281 139.179688 104.777344 150.515625 99.976562 C 162.214844 95 174.691406 92.480469 187.46875 92.480469 C 200.308594 92.480469 212.726562 95 224.421875 99.976562 C 235.761719 104.777344 245.898438 111.675781 254.65625 120.375 C 263.414062 129.132812 270.253906 139.269531 275.050781 150.605469 C 280.03125 162.304688 282.550781 174.78125 282.550781 187.558594 C 282.550781 200.398438 280.03125 212.816406 275.050781 224.511719 C 270.253906 235.851562 263.355469 245.988281 254.65625 254.746094 C 245.898438 263.503906 235.699219 270.34375 224.421875 275.140625 C 212.726562 280.121094 200.246094 282.640625 187.46875 282.640625 Z M 187.46875 96.378906 C 137.261719 96.378906 96.347656 137.230469 96.347656 187.5 C 96.347656 237.769531 137.199219 278.621094 187.46875 278.621094 C 237.738281 278.621094 278.589844 237.710938 278.589844 187.5 C 278.589844 137.230469 237.679688 96.378906 187.46875 96.378906 Z M 187.46875 96.378906 " fill-opacity="1" fill-rule="nonzero"/><g clip-path="url(#efa469a37e)"><path fill="#000000" d="M 187.46875 337.46875 C 167.253906 337.46875 147.578125 333.511719 129.101562 325.652344 C 111.226562 318.09375 95.207031 307.296875 81.472656 293.5 C 67.675781 279.703125 56.875 263.683594 49.316406 245.808594 C 41.460938 227.390625 37.5 207.714844 37.5 187.5 C 37.5 167.222656 41.460938 147.609375 49.257812 129.132812 C 56.816406 111.253906 67.613281 95.238281 81.410156 81.5 C 95.207031 67.703125 111.226562 56.90625 129.042969 49.347656 C 147.578125 41.488281 167.195312 37.53125 187.46875 37.53125 C 207.746094 37.53125 227.363281 41.488281 245.839844 49.289062 C 263.714844 56.847656 279.730469 67.644531 293.527344 81.441406 C 307.324219 95.238281 318.125 111.253906 325.683594 129.070312 C 333.480469 147.546875 337.5 167.222656 337.5 187.441406 C 337.5 207.65625 333.539062 227.332031 325.683594 245.808594 C 318.125 263.683594 307.324219 279.703125 293.527344 293.5 C 279.730469 307.296875 263.714844 318.09375 245.839844 325.652344 C 227.363281 333.511719 207.6875 337.46875 187.46875 337.46875 Z M 187.46875 41.550781 C 106.964844 41.550781 41.519531 106.996094 41.519531 187.5 C 41.519531 268.003906 106.964844 333.511719 187.46875 333.511719 C 267.972656 333.511719 333.480469 268.003906 333.480469 187.5 C 333.421875 106.996094 267.914062 41.550781 187.46875 41.550781 Z M 187.46875 41.550781 " fill-opacity="1" fill-rule="nonzero"/></g><path fill="#000000" d="M 80.992188 134.53125 L 83.570312 139.808594 L 89.449219 140.710938 L 85.191406 144.789062 L 86.210938 150.667969 L 80.992188 147.90625 L 75.710938 150.667969 L 76.730469 144.789062 L 72.472656 140.710938 L 78.351562 139.808594 Z M 80.992188 134.53125 " fill-opacity="1" fill-rule="nonzero"/><path fill="#000000" d="M 304.207031 177.121094 L 306.847656 182.460938 L 312.726562 183.300781 L 308.464844 187.441406 L 309.484375 193.257812 L 304.207031 190.5 L 298.988281 193.257812 L 300.007812 187.441406 L 295.75 183.300781 L 301.628906 182.460938 Z M 304.207031 177.121094 " fill-opacity="1" fill-rule="nonzero"/><path fill="#000000" d="M 72.652344 177.121094 L 75.234375 182.460938 L 81.109375 183.300781 L 76.851562 187.441406 L 77.871094 193.257812 L 72.652344 190.5 L 67.375 193.257812 L 68.394531 187.441406 L 64.132812 183.300781 L 70.011719 182.460938 Z M 72.652344 177.121094 " fill-opacity="1" fill-rule="nonzero"/><path fill="#000000" d="M 78.171875 212.214844 L 80.8125 217.554688 L 86.691406 218.394531 L 82.429688 222.53125 L 83.449219 228.351562 L 78.171875 225.59375 L 72.953125 228.351562 L 73.972656 222.53125 L 69.714844 218.394531 L 75.59375 217.554688 Z M 78.171875 212.214844 " fill-opacity="1" fill-rule="nonzero"/><path fill="#000000" d="M 297.007812 135.671875 L 299.648438 140.949219 L 305.464844 141.789062 L 301.265625 145.929688 L 302.226562 151.746094 L 297.007812 149.046875 L 291.789062 151.746094 L 292.75 145.929688 L 288.550781 141.789062 L 294.367188 140.949219 Z M 297.007812 135.671875 " fill-opacity="1" fill-rule="nonzero"/><path fill="#000000" d="M 298.207031 214.132812 L 300.847656 219.472656 L 306.667969 220.3125 L 302.46875 224.453125 L 303.425781 230.269531 L 298.207031 227.511719 L 292.988281 230.269531 L 293.949219 224.453125 L 289.75 220.3125 L 295.570312 219.472656 Z M 298.207031 214.132812 " fill-opacity="1" fill-rule="nonzero"/><g clip-path="url(#2f8be433f7)"><g clip-path="url(#3fca7e7813)"><path fill="#ffffff" d="M 105.46875 105.46875 L 269.53125 105.46875 L 269.53125 269.53125 L 105.46875 269.53125 Z M 105.46875 105.46875 " fill-opacity="1" fill-rule="nonzero"/></g></g><g clip-path="url(#46576ecc54)"><path fill="#ff4300" d="M 206.382812 262.429688 C 201.488281 264 196.328125 264.964844 190.984375 265.242188 L 187.871094 254.675781 C 187.851562 254.675781 187.835938 254.679688 187.816406 254.679688 C 184.425781 254.679688 181.113281 254.335938 177.910156 253.695312 L 171.796875 263.183594 C 166.8125 261.824219 162.082031 259.84375 157.695312 257.335938 L 160.789062 246.75 C 157.675781 244.75 154.792969 242.417969 152.203125 239.796875 L 141.996094 244.445312 C 138.722656 240.6875 135.90625 236.519531 133.632812 232.035156 L 140.730469 225.871094 C 138.035156 221.90625 135.839844 217.578125 134.203125 212.984375 L 127.542969 212.023438 C 127.246094 209.585938 127.089844 207.109375 127.089844 204.597656 C 127.089844 202.082031 127.246094 199.601562 127.542969 197.167969 L 130.96875 196.671875 C 130.921875 195.726562 130.894531 194.773438 130.894531 193.816406 C 130.894531 182.972656 133.914062 172.839844 139.160156 164.203125 C 136.023438 171.027344 134.273438 178.621094 134.273438 186.625 C 134.273438 216.324219 158.347656 240.398438 188.042969 240.398438 C 217.742188 240.398438 241.816406 216.324219 241.816406 186.625 C 241.816406 178.621094 240.066406 171.027344 236.929688 164.203125 C 242.171875 172.839844 245.191406 182.972656 245.191406 193.816406 C 245.191406 199.695312 244.300781 205.363281 242.652344 210.703125 L 247.945312 213.125 C 247.175781 218.585938 245.683594 223.8125 243.566406 228.707031 L 234.285156 227.382812 C 232.523438 229.800781 230.59375 232.082031 228.488281 234.191406 L 234.449219 243.492188 C 231.023438 247.597656 227.0625 251.242188 222.679688 254.320312 L 214.316406 247.089844 C 211.8125 248.652344 209.164062 249.996094 206.394531 251.105469 L 206.382812 262.429688 " fill-opacity="1" fill-rule="nonzero"/></g><path fill="#ff4300" d="M 226.917969 164.203125 C 229.445312 169.703125 230.859375 175.824219 230.859375 182.273438 C 230.859375 206.210938 211.457031 225.617188 187.519531 225.617188 C 163.582031 225.617188 144.175781 206.210938 144.175781 182.273438 C 144.175781 175.824219 145.589844 169.703125 148.117188 164.203125 C 143.890625 171.160156 141.457031 179.332031 141.457031 188.070312 C 141.457031 213.511719 162.078125 234.132812 187.519531 234.132812 C 212.957031 234.132812 233.578125 213.511719 233.578125 188.070312 C 233.578125 179.332031 231.148438 171.164062 226.917969 164.203125 " fill-opacity="1" fill-rule="nonzero"/><g clip-path="url(#f71c6342ee)"><path fill="#000000" d="M 198.835938 76.292969 L 198.835938 76.304688 C 198.835938 76.363281 198.835938 76.324219 198.835938 76.339844 L 198.832031 76.410156 L 198.820312 76.546875 C 198.8125 76.636719 198.804688 76.726562 198.796875 76.816406 C 198.796875 76.839844 198.792969 76.863281 198.792969 76.886719 L 198.78125 76.964844 C 198.773438 77.015625 198.765625 77.066406 198.761719 77.117188 C 198.746094 77.21875 198.730469 77.320312 198.714844 77.421875 C 198.683594 77.621094 198.636719 77.804688 198.597656 77.992188 C 198.550781 78.179688 198.492188 78.359375 198.441406 78.535156 C 198.417969 78.625 198.382812 78.710938 198.351562 78.796875 C 198.320312 78.882812 198.285156 78.96875 198.253906 79.054688 C 197.988281 79.726562 197.644531 80.3125 197.28125 80.8125 C 197.1875 80.9375 197.101562 81.0625 197 81.171875 C 196.90625 81.285156 196.816406 81.398438 196.71875 81.5 C 196.621094 81.597656 196.527344 81.695312 196.433594 81.789062 C 196.410156 81.8125 196.386719 81.835938 196.367188 81.859375 C 196.339844 81.882812 196.316406 81.902344 196.292969 81.925781 C 196.246094 81.964844 196.199219 82.007812 196.152344 82.050781 C 195.96875 82.214844 195.785156 82.355469 195.613281 82.480469 C 195.53125 82.546875 195.441406 82.597656 195.363281 82.652344 C 195.28125 82.707031 195.203125 82.753906 195.132812 82.804688 C 194.828125 82.980469 194.589844 83.105469 194.417969 83.175781 C 194.332031 83.214844 194.265625 83.242188 194.222656 83.257812 C 194.179688 83.277344 194.15625 83.289062 194.15625 83.289062 C 194.15625 83.289062 194.226562 83.21875 194.351562 83.085938 C 194.386719 83.050781 194.421875 83.015625 194.460938 82.976562 C 194.480469 82.957031 194.5 82.9375 194.523438 82.914062 C 194.542969 82.890625 194.5625 82.867188 194.585938 82.84375 C 194.628906 82.796875 194.675781 82.742188 194.726562 82.6875 C 194.777344 82.632812 194.832031 82.574219 194.886719 82.511719 C 194.9375 82.445312 194.992188 82.375 195.050781 82.304688 C 195.109375 82.234375 195.171875 82.164062 195.230469 82.082031 C 195.347656 81.917969 195.480469 81.757812 195.601562 81.5625 C 195.632812 81.515625 195.664062 81.46875 195.699219 81.417969 C 195.714844 81.394531 195.730469 81.371094 195.746094 81.347656 C 195.761719 81.320312 195.777344 81.292969 195.792969 81.269531 C 195.851562 81.167969 195.914062 81.0625 195.980469 80.953125 C 196.097656 80.730469 196.226562 80.503906 196.332031 80.25 C 196.558594 79.757812 196.753906 79.207031 196.890625 78.617188 C 196.90625 78.542969 196.921875 78.46875 196.9375 78.390625 C 196.953125 78.316406 196.976562 78.242188 196.984375 78.164062 C 196.996094 78.089844 197.007812 78.011719 197.019531 77.933594 C 197.023438 77.894531 197.03125 77.855469 197.039062 77.816406 C 197.042969 77.78125 197.050781 77.742188 197.050781 77.703125 C 197.058594 77.621094 197.066406 77.542969 197.074219 77.464844 L 197.085938 77.34375 C 197.089844 77.304688 197.09375 77.265625 197.09375 77.230469 C 197.097656 77.152344 197.101562 77.078125 197.101562 77 L 197.109375 76.886719 L 197.109375 76.828125 C 197.113281 76.808594 197.109375 76.785156 197.109375 76.761719 C 197.109375 76.671875 197.109375 76.582031 197.105469 76.492188 L 197.105469 76.285156 C 197.105469 76.292969 197.105469 76.25 197.101562 76.304688 L 197.101562 76.285156 L 197.097656 76.261719 L 197.089844 76.160156 L 197.074219 76.050781 C 197.070312 76.011719 197.066406 75.976562 197.058594 75.9375 L 197.035156 75.820312 C 197.011719 75.664062 196.964844 75.496094 196.929688 75.332031 C 196.90625 75.246094 196.882812 75.164062 196.863281 75.078125 C 196.839844 74.992188 196.820312 74.910156 196.792969 74.824219 C 196.59375 74.140625 196.347656 73.433594 196.082031 72.734375 C 195.957031 72.382812 195.8125 72.03125 195.679688 71.679688 C 195.539062 71.332031 195.398438 70.980469 195.261719 70.636719 C 195.117188 70.289062 194.976562 69.945312 194.839844 69.609375 C 194.769531 69.4375 194.699219 69.269531 194.628906 69.101562 C 194.558594 68.933594 194.488281 68.765625 194.421875 68.601562 C 194.351562 68.4375 194.289062 68.269531 194.21875 68.109375 C 194.148438 67.945312 194.082031 67.785156 194.015625 67.625 C 193.882812 67.304688 193.753906 66.992188 193.628906 66.6875 C 193.5 66.386719 193.378906 66.089844 193.265625 65.800781 C 193.207031 65.65625 193.148438 65.511719 193.09375 65.375 C 193.035156 65.234375 192.980469 65.097656 192.925781 64.960938 C 192.820312 64.691406 192.714844 64.433594 192.617188 64.1875 C 192.523438 63.941406 192.433594 63.707031 192.347656 63.488281 C 192.179688 63.046875 192.03125 62.660156 191.917969 62.335938 C 191.804688 62.015625 191.71875 61.757812 191.660156 61.585938 C 191.605469 61.410156 191.574219 61.316406 191.574219 61.316406 C 191.574219 61.316406 191.640625 61.390625 191.757812 61.53125 C 191.875 61.675781 192.042969 61.882812 192.25 62.152344 C 192.460938 62.425781 192.710938 62.753906 192.992188 63.136719 C 193.023438 63.183594 193.0625 63.234375 193.097656 63.28125 C 193.113281 63.308594 193.132812 63.332031 193.152344 63.359375 L 193.152344 63.363281 C 193.160156 63.375 193.15625 63.367188 193.160156 63.375 L 193.167969 63.382812 L 193.179688 63.402344 L 193.207031 63.441406 C 193.277344 63.542969 193.351562 63.648438 193.429688 63.757812 C 193.578125 63.976562 193.730469 64.210938 193.894531 64.449219 C 193.976562 64.570312 194.058594 64.695312 194.140625 64.824219 C 194.222656 64.949219 194.304688 65.082031 194.390625 65.214844 C 194.558594 65.480469 194.726562 65.761719 194.902344 66.046875 C 194.992188 66.191406 195.074219 66.335938 195.160156 66.484375 C 195.246094 66.632812 195.332031 66.785156 195.421875 66.9375 C 195.59375 67.242188 195.773438 67.554688 195.941406 67.878906 C 196.113281 68.203125 196.289062 68.53125 196.457031 68.871094 C 196.621094 69.210938 196.789062 69.550781 196.953125 69.902344 C 197.03125 70.078125 197.109375 70.253906 197.191406 70.433594 C 197.269531 70.609375 197.351562 70.785156 197.425781 70.96875 C 197.574219 71.332031 197.726562 71.695312 197.863281 72.070312 C 198.140625 72.8125 198.390625 73.570312 198.578125 74.355469 C 198.605469 74.453125 198.625 74.550781 198.644531 74.652344 C 198.664062 74.75 198.6875 74.851562 198.707031 74.949219 C 198.738281 75.15625 198.777344 75.351562 198.796875 75.566406 L 198.816406 75.722656 C 198.820312 75.777344 198.824219 75.832031 198.828125 75.886719 L 198.835938 76.050781 C 198.835938 76.109375 198.835938 76.167969 198.835938 76.226562 Z M 189.664062 52.761719 C 189.664062 52.761719 178.660156 70.226562 178.660156 76.304688 C 178.660156 82.382812 183.585938 87.308594 189.664062 87.308594 C 195.742188 87.308594 200.667969 82.382812 200.667969 76.304688 C 200.667969 70.226562 189.664062 52.761719 189.664062 52.761719 " fill-opacity="1" fill-rule="nonzero"/></g><g clip-path="url(#0a13460aaa)"><path fill="#000000" d="M 187.496094 220.675781 C 166.847656 220.675781 150.050781 203.875 150.050781 183.226562 C 150.050781 162.578125 184.453125 110.789062 185.917969 108.5625 C 186.269531 108.035156 186.859375 107.714844 187.496094 107.714844 C 188.128906 107.714844 188.722656 108.035156 189.074219 108.5625 C 190.539062 110.789062 224.941406 163.253906 224.941406 183.226562 C 224.941406 203.203125 208.144531 220.675781 187.496094 220.675781 Z M 187.496094 113.082031 C 180.644531 123.78125 153.828125 166.703125 153.828125 183.226562 C 153.828125 201.792969 168.929688 216.898438 187.496094 216.898438 C 206.0625 216.898438 221.164062 201.792969 221.164062 183.226562 C 221.164062 166.703125 194.351562 123.785156 187.496094 113.082031 Z M 187.496094 113.082031 " fill-opacity="1" fill-rule="nonzero"/></g><g clip-path="url(#ddf786f86e)"><path fill="#000000" d="M 195.746094 170.082031 L 207.941406 170.082031 L 207.941406 158.214844 L 195.746094 158.214844 Z M 195.746094 170.082031 " fill-opacity="1" fill-rule="nonzero"/></g><g clip-path="url(#578cf0ec31)"><path fill="#000000" d="M 252.671875 158.214844 L 252.671875 170.082031 L 221.597656 170.082031 L 221.597656 176.820312 L 252.671875 176.820312 L 252.671875 201.054688 L 195.746094 201.054688 L 195.746094 174.492188 L 207.941406 174.492188 L 207.941406 189.1875 L 240.804688 189.1875 L 240.804688 185.015625 L 209.730469 185.015625 L 209.730469 158.214844 Z M 252.671875 158.214844 " fill-opacity="1" fill-rule="evenodd"/></g><g clip-path="url(#beee5ba637)"><path fill="#000000" d="M 167.203125 158.214844 L 179.070312 158.214844 L 179.070312 174.492188 L 194.316406 174.492188 L 194.316406 185.015625 L 179.070312 185.015625 L 179.070312 201.054688 L 167.203125 201.054688 Z M 167.203125 158.214844 " fill-opacity="1" fill-rule="evenodd"/></g><g fill="#ff4300" fill-opacity="1"><g transform="translate(71.604983, 240.584769)"><g><path d="M 23.9375 -11.671875 L 26.78125 -6.046875 L 21.828125 -3.53125 C 21.460938 -3.351562 21.195312 -3.425781 21.03125 -3.75 C 20.9375 -3.9375 20.878906 -4.101562 20.859375 -4.25 L 20.140625 -8.515625 L 19.890625 -8.390625 L 20.03125 -4.578125 C 20.050781 -3.929688 19.921875 -3.375 19.640625 -2.90625 C 19.367188 -2.445312 18.867188 -2.035156 18.140625 -1.671875 L 3.03125 5.984375 L 0.1875 0.359375 Z M 23.9375 -11.671875 "/></g></g></g><g fill="#ff4300" fill-opacity="1"><g transform="translate(78.30809, 253.550982)"><g><path d="M 21.78125 -15.3125 L 26.734375 -8.5 L 14.90625 3.90625 L 15.078125 4.15625 L 28.71875 -5.75 L 32.453125 -0.625 L 10.90625 15.015625 L 5.953125 8.1875 L 16.828125 -3.484375 L 16.609375 -3.78125 L 3.9375 5.421875 L 0.234375 0.328125 Z M 21.78125 -15.3125 "/></g></g></g><g fill="#ff4300" fill-opacity="1"><g transform="translate(94.780798, 274.642303)"><g><path d="M 17.46875 -12.40625 L 14.609375 -15.0625 L 18.453125 -19.1875 L 28.84375 -9.5 L 25 -5.375 L 22.109375 -8.078125 L 7.796875 7.265625 L 3.15625 2.9375 Z M 17.46875 -12.40625 "/></g></g></g><g fill="#ff4300" fill-opacity="1"><g transform="translate(111.777786, 289.537956)"><g><path d="M 14.890625 -22.078125 L 26.0625 -14.78125 L 22.984375 -10.0625 L 17.078125 -13.921875 L 14.296875 -9.65625 L 19.234375 -6.421875 L 16.453125 -2.15625 L 11.515625 -5.390625 L 8.6875 -1.0625 L 14.59375 2.796875 L 11.515625 7.515625 L 0.34375 0.21875 Z M 14.890625 -22.078125 "/></g></g></g><g fill="#ff4300" fill-opacity="1"><g transform="translate(130.389439, 301.017234)"><g><path d="M 10.671875 -24.390625 L 18.921875 -20.921875 C 21.304688 -19.929688 22.796875 -18.625 23.390625 -17 C 23.992188 -15.375 23.820312 -13.4375 22.875 -11.1875 C 22.0625 -9.25 21.046875 -7.914062 19.828125 -7.1875 C 18.609375 -6.46875 17.03125 -6.453125 15.09375 -7.140625 L 15 -6.921875 C 16.375 -6.347656 17.320312 -5.71875 17.84375 -5.03125 C 18.375 -4.34375 18.597656 -3.585938 18.515625 -2.765625 C 18.441406 -1.953125 18.148438 -0.925781 17.640625 0.3125 L 15.109375 6.328125 L 9.265625 3.890625 L 12.109375 -2.875 C 12.484375 -3.789062 12.640625 -4.507812 12.578125 -5.03125 C 12.523438 -5.550781 12.175781 -5.945312 11.53125 -6.21875 L 10.125 -6.8125 L 6.1875 2.59375 L 0.375 0.15625 Z M 13.0625 -10 C 13.78125 -9.695312 14.351562 -9.734375 14.78125 -10.109375 C 15.207031 -10.484375 15.703125 -11.34375 16.265625 -12.6875 C 16.796875 -13.945312 17.066406 -14.890625 17.078125 -15.515625 C 17.085938 -16.140625 16.742188 -16.597656 16.046875 -16.890625 L 14.609375 -17.5 L 11.703125 -10.578125 Z M 13.0625 -10 "/></g></g></g><g fill="#ff4300" fill-opacity="1"><g transform="translate(153.809222, 310.065621)"><g><path d="M 5.578125 -26.046875 L 13.828125 -24.40625 L 13.578125 -7.265625 L 13.875 -7.203125 L 17.15625 -23.75 L 23.375 -22.515625 L 18.203125 3.609375 L 9.9375 1.96875 L 9.953125 -13.984375 L 9.609375 -14.0625 L 6.578125 1.296875 L 0.40625 0.078125 Z M 5.578125 -26.046875 "/></g></g></g><g fill="#ff4300" fill-opacity="1"><g transform="translate(180.360745, 314.436874)"><g><path d="M 4.296875 -26.671875 L 13.328125 -26.765625 L 17.625 -0.171875 L 11.140625 -0.109375 L 10.328125 -5.59375 L 7.453125 -5.5625 L 6.90625 -0.0625 L 0.40625 0 Z M 10.109375 -10.015625 L 9 -20.109375 L 8.515625 -20.109375 L 7.734375 -10 Z M 10.109375 -10.015625 "/></g></g></g><g fill="#ff4300" fill-opacity="1"><g transform="translate(206.13048, 313.306466)"><g><path d="M 0.09375 -21.421875 L -3.75 -20.65625 L -4.859375 -26.1875 L 9.078125 -28.984375 L 10.1875 -23.453125 L 6.3125 -22.671875 L 10.453125 -2.09375 L 4.234375 -0.84375 Z M 0.09375 -21.421875 "/></g></g></g><g fill="#ff4300" fill-opacity="1"><g transform="translate(227.797915, 308.138189)"><g><path d="M -8.5 -25.234375 L -2.578125 -27.328125 L -0.71875 -22.078125 C -0.582031 -21.703125 -0.679688 -21.457031 -1.015625 -21.34375 C -1.222656 -21.269531 -1.398438 -21.234375 -1.546875 -21.234375 L -5.890625 -21.078125 L -5.796875 -20.8125 L -1.96875 -20.453125 C -1.34375 -20.390625 -0.816406 -20.1875 -0.390625 -19.84375 C 0.0351562 -19.507812 0.382812 -18.960938 0.65625 -18.203125 L 6.3125 -2.234375 L 0.390625 -0.140625 Z M -8.5 -25.234375 "/></g></g></g><g fill="#ff4300" fill-opacity="1"><g transform="translate(241.415112, 303.124148)"><g><path d="M 7.9375 -3.796875 C 6.5625 -3.054688 5.160156 -2.664062 3.734375 -2.625 C 2.316406 -2.582031 1.007812 -2.894531 -0.1875 -3.5625 C -1.382812 -4.226562 -2.34375 -5.222656 -3.0625 -6.546875 L -8.8125 -17.28125 C -9.53125 -18.613281 -9.835938 -19.960938 -9.734375 -21.328125 C -9.628906 -22.703125 -9.160156 -23.96875 -8.328125 -25.125 C -7.503906 -26.28125 -6.40625 -27.226562 -5.03125 -27.96875 C -3.675781 -28.695312 -2.3125 -29.070312 -0.9375 -29.09375 C 0.4375 -29.125 1.703125 -28.789062 2.859375 -28.09375 C 4.023438 -27.40625 4.96875 -26.394531 5.6875 -25.0625 L 11.4375 -14.328125 C 12.15625 -13.003906 12.476562 -11.671875 12.40625 -10.328125 C 12.34375 -8.984375 11.921875 -7.738281 11.140625 -6.59375 C 10.359375 -5.457031 9.289062 -4.523438 7.9375 -3.796875 Z M 2.9375 -8.765625 C 3.226562 -8.222656 3.609375 -7.882812 4.078125 -7.75 C 4.546875 -7.625 5.039062 -7.695312 5.5625 -7.96875 C 6.082031 -8.25 6.410156 -8.609375 6.546875 -9.046875 C 6.679688 -9.484375 6.597656 -9.976562 6.296875 -10.53125 L -0.3125 -22.875 C -0.601562 -23.40625 -0.972656 -23.734375 -1.421875 -23.859375 C -1.878906 -23.984375 -2.359375 -23.910156 -2.859375 -23.640625 C -3.378906 -23.367188 -3.710938 -23.003906 -3.859375 -22.546875 C -4.015625 -22.097656 -3.945312 -21.609375 -3.65625 -21.078125 Z M 2.9375 -8.765625 "/></g></g></g><g fill="#ff4300" fill-opacity="1"><g transform="translate(263.26169, 290.580456)"><g><path d="M -16.734375 -20.71875 L -10.265625 -26.109375 L 2.890625 -15.125 L 3.140625 -15.328125 L -7.65625 -28.28125 L -2.78125 -32.328125 L 14.265625 -11.875 L 7.78125 -6.484375 L -4.59375 -16.546875 L -4.859375 -16.328125 L 5.15625 -4.296875 L 0.3125 -0.265625 Z M -16.734375 -20.71875 "/></g></g></g><g fill="#ff4300" fill-opacity="1"><g transform="translate(283.369421, 272.696114)"><g><path d="M -18.015625 -20.125 L -12.40625 -27.1875 L 10.953125 -13.796875 L 6.921875 -8.71875 L 2.15625 -11.53125 L 0.359375 -9.28125 L 4.296875 -5.40625 L 0.25 -0.3125 Z M -1.421875 -14.15625 L -9.953125 -19.640625 L -10.25 -19.265625 L -2.890625 -12.296875 Z M -1.421875 -14.15625 "/></g></g></g><g fill="#ff4300" fill-opacity="1"><g transform="translate(298.605991, 252.023494)"><g><path d="M -23.28125 -12.9375 L -20.296875 -18.484375 L -1.796875 -8.578125 L 0.828125 -13.484375 L 5.796875 -10.8125 L 0.1875 -0.359375 Z M -23.28125 -12.9375 "/></g></g></g><g fill="#ff4300" fill-opacity="1"><g transform="translate(99.971228, 136.21218)"><g><path d="M -26.984375 -20.65625 L -22.203125 -27.09375 L -10.796875 -18.640625 L -8.71875 -21.453125 L -20.125 -29.90625 L -15.296875 -36.40625 L 12 -16.171875 L 7.171875 -9.671875 L -4 -17.953125 L -6.078125 -15.140625 L 5.09375 -6.859375 L 0.3125 -0.421875 Z M -26.984375 -20.65625 "/></g></g></g><g fill="#ff4300" fill-opacity="1"><g transform="translate(112.538748, 119.0508)"><g><path d="M -1.78125 -14.203125 L -21.6875 -26.171875 L -15.1875 -31.734375 L -4.296875 -23.34375 L -4.0625 -23.546875 L -10.71875 -35.546875 L -4.109375 -41.203125 L 4.375 -19.53125 L 12.171875 -10.40625 L 6.03125 -5.15625 Z M -1.78125 -14.203125 "/></g></g></g><g fill="#ff4300" fill-opacity="1"><g transform="translate(131.431812, 103.178177)"><g><path d="M -15.140625 -30.421875 L -6.3125 -34.984375 C -3.414062 -36.484375 -0.71875 -36.925781 1.78125 -36.3125 C 4.289062 -35.695312 6.257812 -34.015625 7.6875 -31.265625 L 14.34375 -18.375 C 15.289062 -16.539062 15.675781 -14.753906 15.5 -13.015625 C 15.320312 -11.285156 14.679688 -9.710938 13.578125 -8.296875 C 12.484375 -6.878906 11.050781 -5.710938 9.28125 -4.796875 L 0.453125 -0.234375 Z M 6.203125 -10.09375 C 6.910156 -10.4375 7.375 -10.929688 7.59375 -11.578125 C 7.820312 -12.234375 7.71875 -12.992188 7.28125 -13.859375 L -0.125 -28.0625 C -0.550781 -28.882812 -1.085938 -29.394531 -1.734375 -29.59375 C -2.378906 -29.800781 -3.035156 -29.734375 -3.703125 -29.390625 L -5.078125 -28.671875 L 4.84375 -9.46875 Z M 6.203125 -10.09375 "/></g></g></g><g fill="#ff4300" fill-opacity="1"><g transform="translate(151.315877, 92.975266)"><g><path d="M -8.109375 -33 L 2.953125 -35.90625 C 6.140625 -36.738281 8.664062 -36.566406 10.53125 -35.390625 C 12.394531 -34.210938 13.722656 -32.113281 14.515625 -29.09375 C 15.191406 -26.5 15.191406 -24.359375 14.515625 -22.671875 C 13.847656 -20.984375 12.269531 -19.742188 9.78125 -18.953125 L 9.8125 -18.640625 C 11.664062 -19.128906 13.128906 -19.226562 14.203125 -18.9375 C 15.273438 -18.65625 16.082031 -18.070312 16.625 -17.1875 C 17.175781 -16.300781 17.671875 -15.03125 18.109375 -13.375 L 20.21875 -5.296875 L 12.40625 -3.25 L 10.03125 -12.3125 C 9.707031 -13.539062 9.3125 -14.394531 8.84375 -14.875 C 8.382812 -15.363281 7.722656 -15.492188 6.859375 -15.265625 L 4.96875 -14.78125 L 8.265625 -2.171875 L 0.5 -0.125 Z M 5.484375 -20.28125 C 6.453125 -20.539062 7.003906 -21.023438 7.140625 -21.734375 C 7.273438 -22.441406 7.109375 -23.691406 6.640625 -25.484375 C 6.191406 -27.179688 5.734375 -28.347656 5.265625 -28.984375 C 4.796875 -29.628906 4.097656 -29.828125 3.171875 -29.578125 L 1.21875 -29.078125 L 3.640625 -19.8125 Z M 5.484375 -20.28125 "/></g></g></g><g fill="#ff4300" fill-opacity="1"><g transform="translate(173.61335, 87.564084)"><g/></g></g><g fill="#ff4300" fill-opacity="1"><g transform="translate(190.462412, 86.632895)"><g/></g></g><g fill="#ff4300" fill-opacity="1"><g transform="translate(206.863631, 88.069257)"><g><path d="M 10.609375 -32.296875 L 21.8125 -28.8125 C 24.789062 -27.882812 26.847656 -26.222656 27.984375 -23.828125 C 29.128906 -21.441406 29.253906 -18.738281 28.359375 -15.71875 C 27.410156 -12.914062 25.722656 -10.9375 23.296875 -9.78125 C 20.878906 -8.632812 18.0625 -8.5625 14.84375 -9.5625 L 12.1875 -10.390625 L 8.15625 2.546875 L 0.5 0.15625 Z M 16.078125 -15.59375 C 16.992188 -15.3125 17.71875 -15.382812 18.25 -15.8125 C 18.78125 -16.238281 19.257812 -17.140625 19.6875 -18.515625 C 20.15625 -20.023438 20.300781 -21.140625 20.125 -21.859375 C 19.957031 -22.578125 19.414062 -23.078125 18.5 -23.359375 L 16.421875 -24 L 14.015625 -16.28125 Z M 16.078125 -15.59375 "/></g></g></g><g fill="#ff4300" fill-opacity="1"><g transform="translate(229.473068, 95.56268)"><g><path d="M 16.84375 -29.515625 L 23.875 -25.640625 L 10.953125 -2.1875 L 17.1875 1.234375 L 13.71875 7.546875 L 0.453125 0.25 Z M 16.84375 -29.515625 "/></g></g></g><g fill="#ff4300" fill-opacity="1"><g transform="translate(244.621059, 103.683185)"><g><path d="M 8.265625 7.625 C 6.734375 6.34375 5.609375 4.859375 4.890625 3.171875 C 4.179688 1.492188 3.945312 -0.21875 4.1875 -1.96875 C 4.425781 -3.71875 5.148438 -5.3125 6.359375 -6.75 L 22.296875 -25.65625 L 28.4375 -20.46875 L 11.703125 -0.625 C 11.191406 -0.0195312 10.972656 0.578125 11.046875 1.171875 C 11.128906 1.773438 11.472656 2.332031 12.078125 2.84375 C 12.628906 3.300781 13.203125 3.507812 13.796875 3.46875 C 14.390625 3.4375 14.941406 3.117188 15.453125 2.515625 L 32.1875 -17.328125 L 38.28125 -12.171875 L 22.359375 6.78125 C 21.148438 8.21875 19.722656 9.207031 18.078125 9.75 C 16.429688 10.300781 14.742188 10.390625 13.015625 10.015625 C 11.285156 9.640625 9.703125 8.84375 8.265625 7.625 Z M 8.265625 7.625 "/></g></g></g><g fill="#ff4300" fill-opacity="1"><g transform="translate(261.88285, 118.284154)"><g><path d="M 6.390625 9.328125 C 5.191406 7.734375 4.460938 6.0625 4.203125 4.3125 C 3.941406 2.570312 4.140625 0.914062 4.796875 -0.65625 C 5.460938 -2.226562 6.535156 -3.570312 8.015625 -4.6875 L 9.90625 -6.125 L 14.765625 0.34375 L 11.890625 2.515625 C 11.335938 2.929688 11.035156 3.457031 10.984375 4.09375 C 10.941406 4.726562 11.117188 5.304688 11.515625 5.828125 C 12.421875 7.035156 13.488281 7.175781 14.71875 6.25 L 16.859375 4.640625 C 18.367188 3.503906 18.554688 2.070312 17.421875 0.34375 C 15.722656 -2.25 14.90625 -4.738281 14.96875 -7.125 C 15.039062 -9.519531 16.210938 -11.578125 18.484375 -13.296875 L 20.09375 -14.5 C 21.625 -15.664062 23.242188 -16.332031 24.953125 -16.5 C 26.671875 -16.675781 28.332031 -16.367188 29.9375 -15.578125 C 31.550781 -14.785156 32.957031 -13.59375 34.15625 -12 C 35.332031 -10.4375 36.066406 -8.773438 36.359375 -7.015625 C 36.648438 -5.265625 36.476562 -3.566406 35.84375 -1.921875 C 35.207031 -0.285156 34.148438 1.085938 32.671875 2.203125 L 30.65625 3.71875 L 25.796875 -2.734375 L 28.75 -4.96875 C 29.320312 -5.394531 29.644531 -5.921875 29.71875 -6.546875 C 29.789062 -7.179688 29.628906 -7.757812 29.234375 -8.28125 C 28.816406 -8.832031 28.316406 -9.15625 27.734375 -9.25 C 27.148438 -9.351562 26.550781 -9.175781 25.9375 -8.71875 L 23.96875 -7.234375 C 23.0625 -6.546875 22.597656 -5.796875 22.578125 -4.984375 C 22.566406 -4.179688 22.945312 -3.210938 23.71875 -2.078125 C 25.351562 0.253906 26.117188 2.519531 26.015625 4.71875 C 25.910156 6.925781 24.773438 8.847656 22.609375 10.484375 L 20.5625 12.03125 C 19.039062 13.164062 17.425781 13.8125 15.71875 13.96875 C 14.007812 14.132812 12.335938 13.8125 10.703125 13 C 9.066406 12.195312 7.628906 10.972656 6.390625 9.328125 Z M 6.390625 9.328125 "/></g></g></g></svg>